# This file uses centimeters as units for non-parametric coordinates.

mtllib vector.mtl
g default
v -0.050000 0.000000 -0.086603 0.000000 0.000000 1.000000
v -0.050000 0.000000 0.086602 0.000000 0.000000 1.000000
v 0.100000 0.000000 -0.000000 0.000000 0.000000 1.000000
v -0.050000 1.000000 -0.086603 0.000000 0.000000 1.000000
v -0.050000 1.000000 0.086602 0.000000 0.000000 1.000000
v 0.100000 1.000000 -0.000000 0.000000 0.000000 1.000000
v -0.150000 1.000000 -0.259808 0.000000 0.000000 1.000000
v -0.150000 1.000000 0.259808 0.000000 0.000000 1.000000
v 0.300000 1.000000 -0.000000 0.000000 0.000000 1.000000
v -0.000000 1.500000 -0.000000 0.000000 0.000000 1.000000
vt 0.421875 0.020934
vt 0.421875 0.291566
vt 0.656250 0.156250
vt 0.375000 0.312500
vt 0.458333 0.312500
vt 0.541667 0.312500
vt 0.625000 0.312500
vt 0.375000 0.687500
vt 0.458333 0.687500
vt 0.541667 0.687500
vt 0.625000 0.687500
vt 0.421875 0.708434
vt 0.421875 0.979066
vt 0.656250 0.843750
vt 0.375000 0.033494
vt 0.750000 0.250000
vt 0.375000 0.466506
vt 0.250000 0.500000
vt 0.416667 0.500000
vt 0.500000 1.000000
vt 0.583333 0.500000
vt 0.750000 0.500000
vn -1.000000 0.000000 -0.000000
vn -1.000000 0.000000 -0.000000
vn -1.000000 0.000000 -0.000000
vn -1.000000 0.000000 -0.000000
vn 0.500000 0.000000 0.866025
vn 0.500000 0.000000 0.866025
vn 0.500000 0.000000 0.866025
vn 0.500000 0.000000 0.866025
vn 0.500000 0.000000 -0.866025
vn 0.500000 0.000000 -0.866025
vn 0.500000 0.000000 -0.866025
vn 0.500000 0.000000 -0.866025
vn 0.000000 -1.000000 0.000000
vn 0.000000 -1.000000 0.000000
vn 0.000000 -1.000000 0.000000
vn 0.000000 1.000000 0.000001
vn 0.000000 1.000000 0.000001
vn 0.000000 1.000000 0.000001
vn 0.000000 -1.000000 -0.000000
vn 0.000000 -1.000000 -0.000000
vn 0.000000 -1.000000 -0.000000
vn -0.957826 0.287348 -0.000000
vn -0.957826 0.287348 -0.000000
vn -0.957826 0.287348 -0.000000
vn 0.478913 0.287348 0.829502
vn 0.478913 0.287348 0.829502
vn 0.478913 0.287348 0.829502
vn 0.478913 0.287348 -0.829502
vn 0.478913 0.287348 -0.829502
vn 0.478913 0.287348 -0.829502
s off
g pCylinder2
usemtl initialShadingGroup
f 1/4/1 2/5/2 5/9/3 4/8/4
f 2/5/5 3/6/6 6/10/7 5/9/8
f 3/6/9 1/7/10 4/11/11 6/10/12
f 1/1/13 3/3/14 2/2/15
f 4/13/16 5/12/17 6/14/18
f 7/15/19 9/16/20 8/17/21
f 7/18/22 8/19/23 10/20/24
f 8/19/25 9/21/26 10/20/27
f 9/21/28 7/22/29 10/20/30
